<?xml version="1.0" encoding="UTF-8" standalone="no"?>
<!-- Created with Inkscape (http://www.inkscape.org/) -->

<svg
   width="210mm"
   height="297mm"
   viewBox="0 0 210 297"
   version="1.1"
   id="svg5"
   xmlns="http://www.w3.org/2000/svg"
   xmlns:svg="http://www.w3.org/2000/svg">
  <defs
     id="defs2" />
  <g
     id="layer1">
    <g
       id="g877"
       transform="matrix(0.40479045,0,0,0.40479045,63.239266,90.679892)">
      <g
         id="g5228"
         style="fill:#4d576b;fill-opacity:1;stroke:none">
        <path
           style="fill:#4d576b;fill-opacity:1;stroke:none;stroke-width:0.264583px;stroke-linecap:butt;stroke-linejoin:miter;stroke-opacity:1"
           d="M 19.501615,42.839608 C 136.83099,242.8396 136.83099,242.8396 136.83099,242.8396"
           id="path2674" />
        <path
           style="fill:#4d576b;fill-opacity:1;stroke:none;stroke-width:0.264583px;stroke-linecap:butt;stroke-linejoin:miter;stroke-opacity:1"
           d="M 19.501615,42.839608 V 242.8396"
           id="path4197" />
        <path
           style="fill:#4d576b;fill-opacity:1;stroke:none;stroke-width:0.264583px;stroke-linecap:butt;stroke-linejoin:miter;stroke-opacity:1"
           d="M 186.83099,242.8396 V 42.839608"
           id="path4199" />
        <path
           style="fill:#4d576b;fill-opacity:1;stroke:none;stroke-width:0.264583px;stroke-linecap:butt;stroke-linejoin:miter;stroke-opacity:1"
           d="M 69.501617,128.06975 V 242.8396"
           id="path4578" />
        <path
           style="fill:#4d576b;fill-opacity:1;stroke:none;stroke-width:0.264583px;stroke-linecap:butt;stroke-linejoin:miter;stroke-opacity:1"
           d="M 136.83099,242.8396 V 42.839608"
           id="path4773" />
        <path
           style="fill:#4d576b;fill-opacity:1;stroke:none;stroke-width:0.264583px;stroke-linecap:butt;stroke-linejoin:miter;stroke-opacity:1"
           d="M 136.83099,157.60945 69.501617,42.839608"
           id="path4775" />
        <path
           style="fill:#4d576b;fill-opacity:1;stroke:none;stroke-width:0.264583px;stroke-linecap:butt;stroke-linejoin:miter;stroke-opacity:1"
           d="M 19.501615,42.839608 H 69.501617"
           id="path5130" />
        <path
           style="fill:#4d576b;fill-opacity:1;stroke:none;stroke-width:0.264583px;stroke-linecap:butt;stroke-linejoin:miter;stroke-opacity:1"
           d="m 136.83099,42.839608 h 50"
           id="path5132" />
        <path
           style="fill:#4d576b;fill-opacity:1;stroke:none;stroke-width:0.264583px;stroke-linecap:butt;stroke-linejoin:miter;stroke-opacity:1"
           d="m 186.83099,242.8396 h -50"
           id="path5134" />
        <path
           style="fill:#4d576b;fill-opacity:1;stroke:none;stroke-width:0.264583px;stroke-linecap:butt;stroke-linejoin:miter;stroke-opacity:1"
           d="M 69.501617,242.8396 H 19.501615"
           id="path5136" />
      </g>
      <path
         style="fill:#4d576b;fill-opacity:1;stroke:none;stroke-width:0.226061"
         d="M 137.10602,142.87058 V 43.064628 h 24.75369 24.75368 v 99.805952 99.80595 h -24.75368 -24.75369 z"
         id="path5452" />
      <path
         style="fill:#5e82ab;fill-opacity:1;stroke:none;stroke-width:0.226061"
         d="M 78.660717,143.15316 C 46.844529,88.912635 20.621545,44.20341 20.387422,43.799328 l -0.425678,-0.7347 24.719499,0.01109 24.719499,0.01109 33.623798,57.351902 33.62381,57.3519 0.003,41.99084 c 0.002,23.09496 -0.03,41.99084 -0.07,41.99084 -0.04,0 -26.10421,-44.37861 -57.920396,-98.61914 z"
         id="path5491" />
      <path
         style="fill:#90bcbb;fill-opacity:1;stroke:none;stroke-width:0.226061"
         d="m 19.781187,143.26619 c 8.2e-4,-96.133839 0.01437,-99.387995 0.411173,-98.732164 0.225681,0.373001 11.364459,19.353445 24.752839,42.178763 l 24.34251,41.500581 v 57.23158 57.23158 H 44.534026 19.780342 Z"
         id="path5530" />
      <g
         id="g5703"
         style="opacity:0.278524;fill:#d8dee9;fill-opacity:1;stroke:none"
         transform="matrix(0,0.54380988,-0.46054786,0,168.95078,86.736749)">
        <path
           style="fill:#d8dee9;fill-opacity:1;stroke:none;stroke-width:0.264583px;stroke-linecap:butt;stroke-linejoin:miter;stroke-opacity:1"
           d="M 19.501615,42.839608 C 136.83099,242.8396 136.83099,242.8396 136.83099,242.8396"
           id="path5683" />
        <path
           style="fill:#d8dee9;fill-opacity:1;stroke:none;stroke-width:0.264583px;stroke-linecap:butt;stroke-linejoin:miter;stroke-opacity:1"
           d="M 19.501615,42.839608 V 242.8396"
           id="path5685" />
        <path
           style="fill:#d8dee9;fill-opacity:1;stroke:none;stroke-width:0.264583px;stroke-linecap:butt;stroke-linejoin:miter;stroke-opacity:1"
           d="M 186.83099,242.8396 V 42.839608"
           id="path5687" />
        <path
           style="fill:#d8dee9;fill-opacity:1;stroke:none;stroke-width:0.264583px;stroke-linecap:butt;stroke-linejoin:miter;stroke-opacity:1"
           d="M 69.501617,128.06975 V 242.8396"
           id="path5689" />
        <path
           style="fill:#d8dee9;fill-opacity:1;stroke:none;stroke-width:0.264583px;stroke-linecap:butt;stroke-linejoin:miter;stroke-opacity:1"
           d="M 136.83099,242.8396 V 42.839608"
           id="path5691" />
        <path
           style="fill:#d8dee9;fill-opacity:1;stroke:none;stroke-width:0.264583px;stroke-linecap:butt;stroke-linejoin:miter;stroke-opacity:1"
           d="M 136.83099,157.60945 69.501617,42.839608"
           id="path5693" />
        <path
           style="fill:#d8dee9;fill-opacity:1;stroke:none;stroke-width:0.264583px;stroke-linecap:butt;stroke-linejoin:miter;stroke-opacity:1"
           d="M 19.501615,42.839608 H 69.501617"
           id="path5695" />
        <path
           style="fill:#d8dee9;fill-opacity:1;stroke:none;stroke-width:0.264583px;stroke-linecap:butt;stroke-linejoin:miter;stroke-opacity:1"
           d="m 136.83099,42.839608 h 50"
           id="path5697" />
        <path
           style="fill:#d8dee9;fill-opacity:1;stroke:none;stroke-width:0.264583px;stroke-linecap:butt;stroke-linejoin:miter;stroke-opacity:1"
           d="m 186.83099,242.8396 h -50"
           id="path5699" />
        <path
           style="fill:#d8dee9;fill-opacity:1;stroke:none;stroke-width:0.264583px;stroke-linecap:butt;stroke-linejoin:miter;stroke-opacity:1"
           d="M 69.501617,242.8396 H 19.501615"
           id="path5701" />
      </g>
      <path
         style="opacity:1;fill:#d18670;fill-opacity:0.75;stroke:none;stroke-width:0.113132"
         d="m 103.15204,161.29636 h 45.96542 v 13.4613 13.4613 H 103.15204 57.18662 v -13.4613 -13.4613 z"
         id="path5705" />
      <path
         style="opacity:1;fill:#ebca89;fill-opacity:0.75;stroke:none;stroke-width:0.113132"
         d="m 103.0219,129.51322 c 24.98035,-17.30195 45.57109,-31.562271 45.75719,-31.689589 l 0.33837,-0.231488 -0.005,13.442707 -0.005,13.44271 -26.4133,18.28495 -26.413294,18.28496 -19.338791,0.002 c -10.636336,8.7e-4 -19.338792,-0.0163 -19.338792,-0.0381 0,-0.0218 20.438474,-14.19573 45.418827,-31.49769 z"
         id="path5707" />
      <path
         style="opacity:1;fill:#b48ead;fill-opacity:0.75;stroke:none;stroke-width:0.113132"
         d="m 102.96984,97.493954 c 44.27424,4.46e-4 45.77293,0.0078 45.47089,0.2236 -0.17179,0.122728 -8.91319,6.180106 -19.42534,13.460836 l -19.11301,13.2377 H 83.544502 57.18662 v -13.4613 -13.461296 z"
         id="path5709" />
    </g>
  </g>
</svg>
